%TF.GenerationSoftware,KiCad,Pcbnew,9.0.3*%
%TF.CreationDate,2025-12-10T01:03:35+02:00*%
%TF.ProjectId,servo_driver,73657276-6f5f-4647-9269-7665722e6b69,rev?*%
%TF.SameCoordinates,Original*%
%TF.FileFunction,Soldermask,Top*%
%TF.FilePolarity,Negative*%
%FSLAX46Y46*%
G04 Gerber Fmt 4.6, Leading zero omitted, Abs format (unit mm)*
G04 Created by KiCad (PCBNEW 9.0.3) date 2025-12-10 01:03:35*
%MOMM*%
%LPD*%
G01*
G04 APERTURE LIST*
G04 Aperture macros list*
%AMRoundRect*
0 Rectangle with rounded corners*
0 $1 Rounding radius*
0 $2 $3 $4 $5 $6 $7 $8 $9 X,Y pos of 4 corners*
0 Add a 4 corners polygon primitive as box body*
4,1,4,$2,$3,$4,$5,$6,$7,$8,$9,$2,$3,0*
0 Add four circle primitives for the rounded corners*
1,1,$1+$1,$2,$3*
1,1,$1+$1,$4,$5*
1,1,$1+$1,$6,$7*
1,1,$1+$1,$8,$9*
0 Add four rect primitives between the rounded corners*
20,1,$1+$1,$2,$3,$4,$5,0*
20,1,$1+$1,$4,$5,$6,$7,0*
20,1,$1+$1,$6,$7,$8,$9,0*
20,1,$1+$1,$8,$9,$2,$3,0*%
G04 Aperture macros list end*
%ADD10O,1.750000X1.200000*%
%ADD11RoundRect,0.250000X0.625000X-0.350000X0.625000X0.350000X-0.625000X0.350000X-0.625000X-0.350000X0*%
%ADD12R,1.350000X1.350000*%
%ADD13C,1.700000*%
%ADD14R,1.700000X1.700000*%
%ADD15C,6.000000*%
%ADD16RoundRect,1.500000X-1.500000X1.500000X-1.500000X-1.500000X1.500000X-1.500000X1.500000X1.500000X0*%
%ADD17RoundRect,0.250000X0.550000X-0.550000X0.550000X0.550000X-0.550000X0.550000X-0.550000X-0.550000X0*%
%ADD18C,1.600000*%
G04 APERTURE END LIST*
D10*
%TO.C,J1*%
X118000000Y-77000000D03*
X118000000Y-79000000D03*
X118000000Y-81000000D03*
X118000000Y-83000000D03*
X118000000Y-85000000D03*
D11*
X118000000Y-87000000D03*
%TD*%
D12*
%TO.C,Vin+2*%
X126500000Y-99000000D03*
%TD*%
%TO.C,Vout-2*%
X141500000Y-90000000D03*
%TD*%
%TO.C,Vout+4*%
X141500000Y-74000000D03*
%TD*%
D13*
%TO.C,Servo2*%
X155000000Y-92420000D03*
X155000000Y-94960000D03*
D14*
X155000000Y-97500000D03*
%TD*%
%TO.C,Servo1*%
X155000000Y-110000000D03*
D13*
X155000000Y-107460000D03*
X155000000Y-104920000D03*
%TD*%
D15*
%TO.C,J2*%
X116000000Y-47200000D03*
D16*
X116000000Y-40000000D03*
%TD*%
D12*
%TO.C,Vout-6*%
X141500000Y-40000000D03*
%TD*%
%TO.C,Vout-5*%
X141500000Y-52500000D03*
%TD*%
%TO.C,Vout-4*%
X141500000Y-65000000D03*
%TD*%
%TO.C,Vout-3*%
X141500000Y-77500000D03*
%TD*%
%TO.C,Vout-1*%
X141500000Y-102500000D03*
%TD*%
%TO.C,Vout+6*%
X141500000Y-49000000D03*
%TD*%
%TO.C,Vout+5*%
X141500000Y-60500000D03*
%TD*%
%TO.C,Vout+3*%
X141500000Y-86500000D03*
%TD*%
%TO.C,Vout+2*%
X141500000Y-99000000D03*
%TD*%
%TO.C,Vout+1*%
X141500000Y-111500000D03*
%TD*%
%TO.C,Vin-6*%
X126500000Y-40000000D03*
%TD*%
%TO.C,Vin-5*%
X126500000Y-52500000D03*
%TD*%
%TO.C,Vin-4*%
X126500000Y-65000000D03*
%TD*%
%TO.C,Vin-3*%
X126500000Y-77500000D03*
%TD*%
%TO.C,Vin-2*%
X126500000Y-90000000D03*
%TD*%
%TO.C,Vin-1*%
X126500000Y-102500000D03*
%TD*%
%TO.C,Vin+6*%
X126500000Y-49000000D03*
%TD*%
%TO.C,Vin+5*%
X126500000Y-61450000D03*
%TD*%
%TO.C,Vin+4*%
X126500000Y-74000000D03*
%TD*%
%TO.C,Vin+3*%
X126500000Y-86500000D03*
%TD*%
%TO.C,Vin+1*%
X126500000Y-111500000D03*
%TD*%
D14*
%TO.C,Servo6*%
X155000000Y-47500000D03*
D13*
X155000000Y-44960000D03*
X155000000Y-42420000D03*
%TD*%
D14*
%TO.C,Servo5*%
X155000000Y-60000000D03*
D13*
X155000000Y-57460000D03*
X155000000Y-54920000D03*
%TD*%
D14*
%TO.C,Servo4*%
X155000000Y-72500000D03*
D13*
X155000000Y-69960000D03*
X155000000Y-67420000D03*
%TD*%
D14*
%TO.C,Servo3*%
X155000000Y-85000000D03*
D13*
X155000000Y-82460000D03*
X155000000Y-79920000D03*
%TD*%
D17*
%TO.C,C6*%
X147500000Y-45000000D03*
D18*
X147500000Y-42500000D03*
%TD*%
D17*
%TO.C,C5*%
X147500000Y-57500000D03*
D18*
X147500000Y-55000000D03*
%TD*%
D17*
%TO.C,C4*%
X147500000Y-70000000D03*
D18*
X147500000Y-67500000D03*
%TD*%
D17*
%TO.C,C3*%
X147500000Y-82500000D03*
D18*
X147500000Y-80000000D03*
%TD*%
D17*
%TO.C,C2*%
X147500000Y-95000000D03*
D18*
X147500000Y-92500000D03*
%TD*%
D17*
%TO.C,C1*%
X147500000Y-107500000D03*
D18*
X147500000Y-105000000D03*
%TD*%
M02*
