%TF.GenerationSoftware,KiCad,Pcbnew,9.0.3*%
%TF.CreationDate,2025-12-10T01:03:35+02:00*%
%TF.ProjectId,servo_driver,73657276-6f5f-4647-9269-7665722e6b69,rev?*%
%TF.SameCoordinates,Original*%
%TF.FileFunction,Legend,Bot*%
%TF.FilePolarity,Positive*%
%FSLAX46Y46*%
G04 Gerber Fmt 4.6, Leading zero omitted, Abs format (unit mm)*
G04 Created by KiCad (PCBNEW 9.0.3) date 2025-12-10 01:03:35*
%MOMM*%
%LPD*%
G01*
G04 APERTURE LIST*
%ADD10C,0.150000*%
%ADD11C,0.120000*%
G04 APERTURE END LIST*
D10*
X120004819Y-81666666D02*
X120719104Y-81666666D01*
X120719104Y-81666666D02*
X120861961Y-81619047D01*
X120861961Y-81619047D02*
X120957200Y-81523809D01*
X120957200Y-81523809D02*
X121004819Y-81380952D01*
X121004819Y-81380952D02*
X121004819Y-81285714D01*
X121004819Y-82666666D02*
X121004819Y-82095238D01*
X121004819Y-82380952D02*
X120004819Y-82380952D01*
X120004819Y-82380952D02*
X120147676Y-82285714D01*
X120147676Y-82285714D02*
X120242914Y-82190476D01*
X120242914Y-82190476D02*
X120290533Y-82095238D01*
D11*
%TO.C,J1*%
X111640000Y-74940000D02*
X119460000Y-74940000D01*
X117860000Y-74940000D02*
X117860000Y-75860000D01*
X119460000Y-74940000D02*
X119460000Y-75860000D01*
X113900000Y-75700000D02*
X113900000Y-76700000D01*
X115500000Y-75700000D02*
X113900000Y-75700000D01*
X117860000Y-75860000D02*
X117860000Y-76140000D01*
X119460000Y-75860000D02*
X117860000Y-75860000D01*
X113900000Y-76700000D02*
X115500000Y-76700000D01*
X115500000Y-76700000D02*
X115500000Y-75700000D01*
X116000000Y-77500000D02*
X111640000Y-77500000D01*
X111640000Y-86500000D02*
X116000000Y-86500000D01*
X116000000Y-86500000D02*
X116000000Y-77500000D01*
X113900000Y-87300000D02*
X111640000Y-87300000D01*
X113900000Y-87300000D02*
X115500000Y-87300000D01*
X115500000Y-87300000D02*
X115500000Y-88300000D01*
X113900000Y-87800000D02*
X111640000Y-87800000D01*
X117860000Y-87860000D02*
X119075000Y-87860000D01*
X117860000Y-87860000D02*
X117860000Y-88140000D01*
X117860000Y-88140000D02*
X119460000Y-88140000D01*
X119460000Y-88140000D02*
X119460000Y-89060000D01*
X113900000Y-88300000D02*
X113900000Y-87300000D01*
X115500000Y-88300000D02*
X113900000Y-88300000D01*
X111640000Y-89060000D02*
X111640000Y-74940000D01*
X117860000Y-89060000D02*
X117860000Y-88140000D01*
X119460000Y-89060000D02*
X111640000Y-89060000D01*
%TD*%
M02*
