M48
; DRILL file {KiCad 9.0.3} date 2025-12-10T01:03:41+0200
; FORMAT={-:-/ absolute / metric / decimal}
; #@! TF.CreationDate,2025-12-10T01:03:41+02:00
; #@! TF.GenerationSoftware,Kicad,Pcbnew,9.0.3
; #@! TF.FileFunction,Plated,1,2,PTH
FMAT,2
METRIC
; #@! TA.AperFunction,Plated,PTH,ViaDrill
T1C0.500
; #@! TA.AperFunction,Plated,PTH,ComponentDrill
T2C0.750
; #@! TA.AperFunction,Plated,PTH,ComponentDrill
T3C0.800
; #@! TA.AperFunction,Plated,PTH,ComponentDrill
T4C1.000
; #@! TA.AperFunction,Plated,PTH,ComponentDrill
T5C4.500
%
G90
G05
T1
X129.5Y-37.5
X129.5Y-43.0
X130.0Y-55.0
X131.0Y-67.0
X131.0Y-75.5
X131.0Y-85.0
X131.0Y-92.0
X131.0Y-96.5
X131.0Y-104.5
X131.5Y-59.5
X131.5Y-79.5
X131.5Y-101.0
X132.5Y-51.0
X135.5Y-37.5
X135.5Y-43.0
X135.5Y-104.5
X136.0Y-59.5
X136.0Y-75.5
X136.0Y-85.0
X136.0Y-92.0
X136.0Y-96.5
X136.0Y-101.0
X136.5Y-55.5
X136.5Y-67.0
X136.5Y-79.5
X137.0Y-51.0
T2
X118.0Y-77.0
X118.0Y-79.0
X118.0Y-81.0
X118.0Y-83.0
X118.0Y-85.0
X118.0Y-87.0
T3
X126.5Y-40.0
X126.5Y-49.0
X126.5Y-52.5
X126.5Y-61.45
X126.5Y-65.0
X126.5Y-74.0
X126.5Y-77.5
X126.5Y-86.5
X126.5Y-90.0
X126.5Y-99.0
X126.5Y-102.5
X126.5Y-111.5
X141.5Y-40.0
X141.5Y-49.0
X141.5Y-52.5
X141.5Y-60.5
X141.5Y-65.0
X141.5Y-74.0
X141.5Y-77.5
X141.5Y-86.5
X141.5Y-90.0
X141.5Y-99.0
X141.5Y-102.5
X141.5Y-111.5
X147.5Y-42.5
X147.5Y-45.0
X147.5Y-55.0
X147.5Y-57.5
X147.5Y-67.5
X147.5Y-70.0
X147.5Y-80.0
X147.5Y-82.5
X147.5Y-92.5
X147.5Y-95.0
X147.5Y-105.0
X147.5Y-107.5
T4
X155.0Y-42.42
X155.0Y-44.96
X155.0Y-47.5
X155.0Y-54.92
X155.0Y-57.46
X155.0Y-60.0
X155.0Y-67.42
X155.0Y-69.96
X155.0Y-72.5
X155.0Y-79.92
X155.0Y-82.46
X155.0Y-85.0
X155.0Y-92.42
X155.0Y-94.96
X155.0Y-97.5
X155.0Y-104.92
X155.0Y-107.46
X155.0Y-110.0
T5
X116.0Y-40.0
X116.0Y-47.2
M30
