M48
; DRILL file {KiCad 9.0.3} date 2025-10-04T09:57:08+0300
; FORMAT={-:-/ absolute / metric / decimal}
; #@! TF.CreationDate,2025-10-04T09:57:08+03:00
; #@! TF.GenerationSoftware,Kicad,Pcbnew,9.0.3
; #@! TF.FileFunction,Plated,1,2,PTH
FMAT,2
METRIC
; #@! TA.AperFunction,Plated,PTH,ViaDrill
T1C0.500
; #@! TA.AperFunction,Plated,PTH,ComponentDrill
T2C0.800
; #@! TA.AperFunction,Plated,PTH,ComponentDrill
T3C1.000
; #@! TA.AperFunction,Plated,PTH,ComponentDrill
T4C2.200
; #@! TA.AperFunction,Plated,PTH,ComponentDrill
T5C4.500
%
G90
G05
T1
X169.72Y-78.52
X175.22Y-78.52
X178.72Y-34.02
X178.72Y-37.02
X178.72Y-40.02
X178.72Y-43.02
X178.72Y-46.52
X178.72Y-50.52
X178.72Y-54.02
X178.72Y-57.02
X178.72Y-59.52
X178.72Y-63.02
X178.72Y-66.02
X178.72Y-69.02
X178.72Y-72.02
X178.72Y-75.52
X181.22Y-78.52
X182.72Y-42.52
X183.22Y-54.02
X183.22Y-57.02
X183.22Y-59.52
X183.22Y-63.02
X183.22Y-66.02
X183.22Y-69.02
X183.22Y-72.02
X183.22Y-75.52
X184.72Y-34.02
X184.72Y-37.02
X188.72Y-44.52
X188.72Y-50.52
X188.72Y-57.02
X188.72Y-64.02
X188.72Y-71.02
X196.22Y-70.02
X201.72Y-41.02
X202.72Y-69.52
X202.72Y-74.02
X205.22Y-69.52
X205.72Y-41.02
X206.22Y-50.02
X206.22Y-58.02
X208.72Y-49.02
X209.22Y-57.52
X215.22Y-39.52
X216.22Y-54.52
X221.22Y-27.52
X222.72Y-32.52
X222.72Y-47.02
X223.22Y-41.02
X226.22Y-27.52
X226.22Y-55.52
X226.72Y-47.02
X227.22Y-41.02
X228.72Y-32.52
T2
X163.72Y-97.02
X166.22Y-97.02
X176.22Y-97.02
X178.72Y-97.02
X185.22Y-97.02
X187.72Y-97.02
X196.72Y-97.02
X199.22Y-97.02
X204.22Y-28.52
X204.22Y-31.02
X206.22Y-97.02
X208.72Y-97.02
X218.22Y-97.02
X220.72Y-97.02
T3
X163.68Y-105.02
X163.96Y-66.88
X163.96Y-69.42
X163.96Y-71.96
X163.96Y-74.5
X164.195Y-27.32
X164.195Y-29.86
X164.195Y-32.4
X164.195Y-34.94
X164.195Y-37.48
X164.195Y-40.02
X164.22Y-47.02
X164.22Y-49.56
X164.22Y-52.1
X164.22Y-54.64
X164.22Y-57.18
X164.22Y-59.72
X165.14Y-112.02
X165.14Y-126.02
X166.22Y-105.02
X166.5Y-66.88
X166.5Y-69.42
X166.5Y-71.96
X166.5Y-74.5
X168.76Y-105.02
X169.22Y-112.02
X169.22Y-126.02
X171.22Y-88.02
X173.14Y-112.02
X173.14Y-126.02
X173.22Y-105.02
X173.76Y-88.02
X173.9Y-26.4
X173.9Y-28.94
X173.9Y-31.48
X173.9Y-34.02
X173.9Y-36.56
X173.9Y-39.1
X173.9Y-41.64
X173.9Y-44.18
X173.9Y-46.72
X173.9Y-49.26
X173.9Y-51.8
X173.9Y-54.34
X173.9Y-56.88
X173.9Y-59.42
X173.9Y-61.96
X173.9Y-64.5
X173.9Y-67.04
X173.9Y-69.58
X173.9Y-72.12
X173.9Y-74.66
X175.76Y-105.02
X176.3Y-88.02
X177.22Y-112.02
X177.22Y-126.02
X178.3Y-105.02
X178.84Y-88.02
X181.38Y-88.02
X183.92Y-88.02
X185.22Y-104.74
X185.7Y-111.74
X185.7Y-125.74
X187.76Y-104.74
X190.22Y-111.74
X190.22Y-125.74
X190.3Y-104.74
X191.5Y-26.4
X191.5Y-28.94
X191.5Y-31.48
X191.5Y-34.02
X191.5Y-36.56
X191.5Y-39.1
X191.5Y-41.64
X191.5Y-44.18
X191.5Y-46.72
X191.5Y-49.26
X191.5Y-51.8
X191.5Y-54.34
X191.5Y-56.88
X191.5Y-59.42
X191.5Y-61.96
X191.5Y-64.5
X191.5Y-67.04
X191.5Y-69.58
X191.5Y-72.12
X191.5Y-74.66
X193.7Y-111.74
X193.7Y-125.74
X194.22Y-104.77
X196.76Y-104.77
X198.22Y-111.74
X198.22Y-125.74
X199.3Y-104.77
X200.22Y-69.48
X200.22Y-72.02
X200.22Y-74.56
X200.22Y-77.1
X200.68Y-46.48
X200.68Y-49.02
X200.68Y-51.56
X200.68Y-54.1
X200.68Y-56.64
X200.68Y-59.18
X200.68Y-61.72
X203.22Y-46.48
X203.22Y-49.02
X203.22Y-51.56
X203.22Y-54.1
X203.22Y-56.64
X203.22Y-59.18
X203.22Y-61.72
X206.22Y-105.02
X207.22Y-111.74
X207.22Y-125.74
X208.76Y-105.02
X210.65Y-32.01
X211.3Y-105.02
X212.22Y-55.02
X212.22Y-57.56
X212.22Y-60.1
X212.22Y-62.64
X212.22Y-65.18
X212.22Y-67.72
X212.22Y-70.26
X212.22Y-72.8
X212.22Y-75.34
X212.22Y-77.88
X212.22Y-112.02
X212.22Y-126.02
X213.19Y-32.01
X213.22Y-27.02
X215.22Y-111.74
X215.22Y-125.74
X215.68Y-105.02
X215.73Y-32.01
X215.76Y-27.02
X218.22Y-105.02
X218.27Y-32.01
X220.22Y-112.02
X220.22Y-126.02
X220.76Y-105.02
X231.22Y-55.02
X231.22Y-57.56
X231.22Y-60.1
X231.22Y-62.64
X231.22Y-65.18
X231.22Y-67.72
X231.22Y-70.26
X231.22Y-72.8
X231.22Y-75.34
X231.22Y-77.88
T4
X165.22Y-79.02
X165.22Y-90.02
X182.22Y-29.02
X182.22Y-48.02
X206.22Y-78.02
X229.22Y-90.02
X229.22Y-106.02
X230.22Y-29.02
X230.22Y-48.02
T5
X229.22Y-117.82
X229.22Y-125.02
M30
